<?xml version="1.0" encoding="UTF-8"?>
<svg id="Layer_2" data-name="Layer 2" xmlns="http://www.w3.org/2000/svg" version="1.1" viewBox="0 0 337 450.4">
  <defs>
    <style>
      .cls-1 {
        fill: #231f20;
        stroke-width: 0px;
      }
    </style>
  </defs>
  <polygon class="cls-1" points="337 246.8 337 323.8 135.5 440.1 135.5 363.1 337 246.8"/>
  <polygon class="cls-1" points="201.2 13.8 202.2 92.6 1.1 208.7 0 130 201.2 13.8"/>
  <g>
    <polygon class="cls-1" points="21.6 308.6 122.2 250.4 122.2 216.2 21.1 274.6 21.6 308.6 21.6 308.6"/>
    <polygon class="cls-1" points="21.7 319.2 22.2 353.3 122.2 295.5 122.2 261 21.7 319.2"/>
  </g>
  <g>
    <polygon class="cls-1" points="202.2 204.1 202.2 92.5 135.5 131 135.5 242.7 202.2 204.1"/>
    <polygon class="cls-1" points="135.5 253.3 135.5 363.6 202.2 325.1 202.2 214.7 135.5 253.3"/>
  </g>
  <g>
    <polygon class="cls-1" points="318.1 137.5 317.7 102.7 217.6 160.5 217.6 195.7 318.1 137.5"/>
    <polygon class="cls-1" points="217.6 206.2 217.6 239.8 318.7 181.5 318.3 147.9 217.6 206.2"/>
  </g>
</svg>